<svg width="32" height="32" viewBox="0 0 32 32" fill="none" xmlns="http://www.w3.org/2000/svg">
  <path fill-rule="evenodd" clip-rule="evenodd"
    d="M0 0H32V2.13333H23.6542C20.3012 0.590637 16.4129 0.590637 13.0599 2.13333H0V0ZM0 4.97778H9.10885L6.97552 7.11111H0V4.97778ZM29.2146 7.11111C29.7592 8.01397 30.1811 8.97013 30.4803 9.95556H32V12.0889H30.9318C31.0482 13.0329 31.0583 13.9875 30.9623 14.9333H32V17.0667H30.5593C30.2848 18.0493 29.8896 19.0052 29.3736 19.9111H32V22.0444H27.844C27.6752 22.2347 27.4997 22.4211 27.3174 22.6034C22.3708 27.55 14.3507 27.55 9.40407 22.6034C4.45742 17.6568 4.45742 9.63666 9.40407 4.69002C14.3507 -0.256624 22.3708 -0.256624 27.3174 4.69002C27.4122 4.78482 27.5052 4.88076 27.5964 4.97778H32V7.11111H29.2146ZM0 9.95556H4.163C3.56999 10.6234 3.05975 11.339 2.63228 12.0889H0V9.95556ZM0 14.9333H1.44544C1.24954 15.6337 1.11501 16.3477 1.04181 17.0667H0V14.9333ZM0 19.9111H1.07144C1.15994 20.6312 1.31025 21.3452 1.52231 22.0444H0V19.9111ZM0 24.8889H2.7869C3.24061 25.6417 3.77957 26.3574 4.40383 27.0222H0V24.8889ZM25.0245 24.8889L22.8911 27.0222H32V24.8889H25.0245ZM18.9401 29.8667C15.5871 31.4094 11.6988 31.4094 8.34583 29.8667H0V32H32V29.8667H18.9401Z"
    fill="black" />
</svg>